<svg xmlns="http://www.w3.org/2000/svg" xmlns:svg="http://www.w3.org/2000/svg" id="svg2" width="55" height="55" version="1.1"><metadata id="metadata10"/><path id="path4" fill="#fff" fill-opacity="1" stroke="none" d="m 13.499997,19.999999 q 2,-2 4,1.000001 l 0,12 q 1,2 2,0 l 0,-24.0000005 q 2,-2 4,0 l 0,18.0000005 q 1,2 2,0 l 0,-18.0000005 q 2,-2 4,0 l 0,18.0000005 q 1,2 2,0 l 0,-18.0000005 q 2,-2 4,0 l 0,18.0000005 q 1,2 2,0 l 0,-13.000001 q 2,-2 4,0 l 0,25.000001 q 0,7 -6,8 l -16,0 q -6,0 -6,-8"/></svg>