<svg xmlns="http://www.w3.org/2000/svg" width="50" height="50"><defs><mask id="Mask" width="50" height="50" x="0" y="0" maskUnits="userSpaceOnUse"><rect width="50" height="50" x="0" y="0" fill="#FFF"/><line x1="38" x2="46" y1="3" y2="13" stroke="#000" stroke-linecap="round" stroke-width="3"/><line x1="46" x2="38" y1="3" y2="13" stroke="#000" stroke-linecap="round" stroke-width="3"/><line x1="42" x2="42" y1="1" y2="15" stroke="#000" stroke-linecap="round" stroke-width="3"/><line x1="35" x2="49" y1="8" y2="8" stroke="#000" stroke-linecap="round" stroke-width="3"/></mask></defs><path fill="none" stroke="#FFF" stroke-width="2.5" d="M15 28 C25,26 19,15 28,13" mask="url(#Mask)"/><path fill="none" stroke="#FFF" stroke-width="2.5" d="M15 28 L28,28" mask="url(#Mask)"/><path fill="none" stroke="#FFF" stroke-width="2.5" d="M15 28 C25,30 19,40 28,43" mask="url(#Mask)"/><rect width="14" height="10" x="1" y="23" fill="#FFF" stroke="#FFF" stroke-linejoin="round" stroke-width="2" mask="url(#Mask)"/><rect width="14" height="10" x="28" y="8" fill=":#FFFFFF" stroke="#FFF" stroke-linejoin="round" stroke-width="2" mask="url(#Mask)"/><rect width="14" height="10" x="28" y="23" fill="#FFF" stroke="#FFF" stroke-linejoin="round" stroke-width="2" mask="url(#Mask)"/><rect width="14" height="10" x="28" y="38" fill="#FFF" stroke="#FFF" stroke-linejoin="round" stroke-width="2" mask="url(#Mask)"/><line x1="38" x2="46" y1="3" y2="13" stroke="#FFF" stroke-linecap="round" stroke-width="2"/><line x1="46" x2="38" y1="3" y2="13" stroke="#FFF" stroke-linecap="round" stroke-width="2"/><line x1="42" x2="42" y1="1" y2="15" stroke="#FFF" stroke-linecap="round" stroke-width="2"/><line x1="35" x2="49" y1="8" y2="8" stroke="#FFF" stroke-linecap="round" stroke-width="2"/></svg>