<svg xmlns="http://www.w3.org/2000/svg" xmlns:svg="http://www.w3.org/2000/svg" id="svg2" width="50" height="50"><metadata id="metadata36"/><defs id="defs4"><mask id="Mask" width="50" height="50" x="0" y="0" maskUnits="userSpaceOnUse"><rect id="rect7" width="50" height="50" x="0" y="0" fill="#fff"/><line id="line9" x1="35" x2="35" y1="4" y2="26" stroke="#000" stroke-width="10"/><line id="line11" x1="24" x2="46" y1="15" y2="15" stroke="#000" stroke-width="10"/><polyline id="polyline13" fill="#000" stroke="none" stroke-width="0" points="17.7 38.7 26.3 31 21 38.7"/></mask></defs><rect id="rect3161" width="37.15" height="28.059" x="7.02" y="12.648" fill="#000" fill-opacity="0" stroke="#fff" stroke-dasharray="none" stroke-dashoffset="0" stroke-linecap="butt" stroke-linejoin="miter" stroke-miterlimit="4" stroke-opacity="1" stroke-width="2.899" opacity="1"/><polyline id="polyline17" fill="none" stroke="#fff" stroke-opacity="1" stroke-width="1.25" points="13 15.7 20.7 11.7 26.3 15.7" mask="url(#Mask)" transform="translate(6.3852819,-2.7056278)"/><circle id="circle19" cx="12.3" cy="23.7" r="3" fill="#fff" stroke="#fff" stroke-opacity="1" stroke-width="1.5" mask="url(#Mask)" transform="translate(23.917748,-3.1385282)"/><polyline id="polyline23" fill="#fff" stroke="#fff" stroke-opacity="1" stroke-width="3" points="13 39.7 27.6 29.6 34.3 33.6 34.3 39.7" mask="url(#Mask)" transform="matrix(0.9827085,0,0,0.9742491,10.040979,0.9463818)"/><polyline id="polyline25" fill="none" stroke="#fff" stroke-opacity="1" stroke-width=".9" points="20.3 26.3 21.7 27.7 23 26.3" mask="url(#Mask)" transform="translate(-6.2770563,-0.7575757)"/><polyline id="polyline27" fill="none" stroke="#fff" stroke-opacity="1" stroke-width="1" points="23.8 24.3 25.3 22.8 26.9 24.3" mask="url(#Mask)" transform="translate(-6.2770563,-0.7575757)"/><polyline id="polyline29" fill="none" stroke="#fff" stroke-opacity="1" stroke-width="1" points="27 19.7 28.7 21.3 30.3 19.7" mask="url(#Mask)" transform="translate(-6.2770563,-0.7575757)"/><polyline id="polyline21" fill="none" stroke="#fff" stroke-opacity="1" stroke-width="2.5" points="5 35 13.7 32.3 20.3 34.1" mask="url(#Mask)" transform="translate(3.3549781,4.1125541)"/></svg>